<svg width="159" height="82" viewBox="0 0 159 82" fill="none" xmlns="http://www.w3.org/2000/svg">
<path d="M18.6403 0.875H21.5466V24.8516C21.5466 28.0859 20.6091 30.6641 18.7341 32.5859C16.8747 34.5078 14.3747 35.4688 11.2341 35.4688C7.92156 35.4688 5.37469 34.6016 3.59344 32.8672C1.81219 31.1328 0.921562 28.7109 0.921562 25.6016H3.80437C3.80437 28.0703 4.45281 29.9297 5.74969 31.1797C7.04656 32.4141 8.87469 33.0312 11.2341 33.0312C13.4059 33.0312 15.1716 32.3125 16.5309 30.875C17.9059 29.4375 18.6091 27.4844 18.6403 25.0156V0.875ZM68.6353 0.875V24.1719C68.6197 26.4688 68.1119 28.4688 67.1119 30.1719C66.1119 31.875 64.6978 33.1875 62.8697 34.1094C61.0572 35.0156 58.9712 35.4688 56.6119 35.4688C53.0181 35.4688 50.1353 34.4922 47.9634 32.5391C45.8072 30.5703 44.69 27.8516 44.6119 24.3828V0.875H47.4712V23.9609C47.4712 26.8359 48.2916 29.0703 49.9322 30.6641C51.5728 32.2422 53.7994 33.0312 56.6119 33.0312C59.4244 33.0312 61.6431 32.2344 63.2681 30.6406C64.9087 29.0469 65.7291 26.8281 65.7291 23.9844V0.875H68.6353ZM111.107 26.6094C111.107 24.7188 110.443 23.2266 109.115 22.1328C107.787 21.0234 105.357 19.9766 101.826 18.9922C98.2944 17.9922 95.7162 16.9062 94.0912 15.7344C91.7787 14.0781 90.6225 11.9062 90.6225 9.21875C90.6225 6.60938 91.6928 4.49219 93.8334 2.86719C95.9897 1.22656 98.7397 0.40625 102.083 0.40625C104.349 0.40625 106.372 0.84375 108.154 1.71875C109.951 2.59375 111.341 3.8125 112.326 5.375C113.31 6.9375 113.802 8.67969 113.802 10.6016H110.896C110.896 8.27344 110.099 6.40625 108.505 5C106.912 3.57812 104.771 2.86719 102.083 2.86719C99.4741 2.86719 97.3959 3.45312 95.8491 4.625C94.3022 5.78125 93.5287 7.29688 93.5287 9.17188C93.5287 10.9062 94.2241 12.3203 95.6147 13.4141C97.0053 14.5078 99.2319 15.4766 102.294 16.3203C105.357 17.1484 107.677 18.0156 109.255 18.9219C110.833 19.8125 112.021 20.8828 112.818 22.1328C113.615 23.3828 114.013 24.8594 114.013 26.5625C114.013 29.25 112.935 31.4062 110.779 33.0312C108.638 34.6562 105.81 35.4688 102.294 35.4688C99.8881 35.4688 97.6772 35.0391 95.6616 34.1797C93.6616 33.3203 92.1381 32.1172 91.0912 30.5703C90.06 29.0234 89.5444 27.25 89.5444 25.25H92.4272C92.4272 27.6562 93.3256 29.5547 95.1225 30.9453C96.9194 32.3359 99.31 33.0312 102.294 33.0312C104.951 33.0312 107.083 32.4453 108.693 31.2734C110.302 30.1016 111.107 28.5469 111.107 26.6094ZM158.524 3.33594H146.828V35H143.946V3.33594H132.274V0.875H158.524V3.33594ZM46.2347 82H43.4222V46H46.2347V82ZM59.8959 82H57.0834V56.6406H59.8959V82ZM56.5913 49.3047C56.5913 48.7734 56.7631 48.3281 57.1069 47.9688C57.4506 47.5938 57.9194 47.4062 58.5131 47.4062C59.1069 47.4062 59.5756 47.5938 59.9194 47.9688C60.2788 48.3281 60.4584 48.7734 60.4584 49.3047C60.4584 49.8359 60.2788 50.2812 59.9194 50.6406C59.5756 51 59.1069 51.1797 58.5131 51.1797C57.9194 51.1797 57.4506 51 57.1069 50.6406C56.7631 50.2812 56.5913 49.8359 56.5913 49.3047ZM73.0884 56.6406L73.1822 60.9766C74.1353 59.4141 75.3228 58.2266 76.7447 57.4141C78.1666 56.5859 79.7369 56.1719 81.4556 56.1719C84.1744 56.1719 86.1978 56.9375 87.5259 58.4688C88.8541 60 89.5259 62.2969 89.5416 65.3594V82H86.7525V65.3359C86.7369 63.0703 86.2525 61.3828 85.2994 60.2734C84.3619 59.1641 82.8541 58.6094 80.7759 58.6094C79.0416 58.6094 77.5025 59.1562 76.1588 60.25C74.8306 61.3281 73.8463 62.7891 73.2056 64.6328V82H70.4166V56.6406H73.0884ZM105.711 69.2266L102.5 72.3203V82H99.6872V46H102.5V69.0391L105.148 66.1797L114.851 56.6406H118.39L107.632 67.3281L119.328 82H115.976L105.711 69.2266Z" fill="#375F76"/>
</svg>
